<?xml version="1.0" encoding="UTF-8" standalone="no"?>
<!-- Created with Inkscape (http://www.inkscape.org/) -->

<svg
   width="100.00001mm"
   height="100mm"
   viewBox="0 0 100.00001 100"
   version="1.1"
   id="svg1"
   xml:space="preserve"
   inkscape:version="1.3.2 (091e20e, 2023-11-25, custom)"
   sodipodi:docname="Rezumate_Main.svg"
   xmlns:inkscape="http://www.inkscape.org/namespaces/inkscape"
   xmlns:sodipodi="http://sodipodi.sourceforge.net/DTD/sodipodi-0.dtd"
   xmlns="http://www.w3.org/2000/svg"
   xmlns:svg="http://www.w3.org/2000/svg"><sodipodi:namedview
     id="namedview1"
     pagecolor="#ffffff"
     bordercolor="#000000"
     borderopacity="0.25"
     inkscape:showpageshadow="2"
     inkscape:pageopacity="0.0"
     inkscape:pagecheckerboard="0"
     inkscape:deskcolor="#d1d1d1"
     inkscape:document-units="mm"
     inkscape:zoom="0.35355339"
     inkscape:cx="-87.68124"
     inkscape:cy="858.42763"
     inkscape:window-width="1920"
     inkscape:window-height="1009"
     inkscape:window-x="-8"
     inkscape:window-y="-8"
     inkscape:window-maximized="1"
     inkscape:current-layer="layer1" /><defs
     id="defs1" /><g
     inkscape:label="Layer 1"
     inkscape:groupmode="layer"
     id="layer1"
     transform="translate(-229.61805,-67.653524)"><g
       id="g42"
       transform="matrix(1.592956,0,0,1.5929479,5.110155,-134.88618)"><g
         id="g41"
         inkscape:export-filename="Rezumate_wb.png"
         inkscape:export-xdpi="96"
         inkscape:export-ydpi="96"><rect
           style="fill:#ffffff;stroke:none;stroke-width:2.22355"
           id="rect36"
           width="62.776375"
           height="62.776691"
           x="140.93791"
           y="127.14773"
           ry="1.8567431" /><g
           id="g40"
           transform="translate(2.6560085,-0.15420726)"><path
             style="fill:#000000;stroke:none;stroke-width:6.07893"
             d="m 168.08053,145.11958 -11.49698,11.49704 c -3.39212,3.38145 -3.47051,4.50222 -0.20269,9.54391 l 12.67759,19.42283 c 0.40365,0.57165 0.98689,0.5997 1.44185,-3.3e-4 l 12.31775,-18.91295 c 3.36638,-4.76612 3.47136,-6.54085 -0.20618,-10.38378 l -11.16529,-11.16537 c -1.68372,-1.6837 -1.68372,-1.6837 -3.36605,-10e-4 z"
             id="path39"
             sodipodi:nodetypes="cccccccccc" /><path
             id="path40"
             style="fill:#ffffff;stroke:none;stroke-width:5.00001"
             d="m 171.65013,155.8187 c -0.0152,-7.8e-4 -0.0325,3.5e-4 -0.0517,0.001 h -3.52562 c -0.08,0 -0.12783,-0.007 -0.2067,0.102 l -0.94697,1.25058 c -0.11628,0.14425 -0.11255,0.247 -0.001,0.40177 l 2.60595,3.45414 c 0.0647,0.103 0.0588,0.164 0.0499,0.24875 l -2.68559,14.31558 c -0.0439,0.23725 -0.0904,0.2571 0.0801,0.41985 l 2.64841,2.51536 c 0.21323,0.18925 0.27252,0.19175 0.50772,-0.015 l 2.38874,-2.51276 c 0.098,-0.12525 0.0974,-0.14725 0.0749,-0.33072 l -2.51822,-14.38331 c -0.0192,-0.1225 0.004,-0.19275 0.0557,-0.2719 l 2.41549,-3.46124 c 0.16217,-0.235 0.17785,-0.27217 -0.017,-0.55162 l -0.71372,-1.07628 c -0.0394,-0.0555 -0.0543,-0.1005 -0.1602,-0.106 z"
             sodipodi:nodetypes="scsccccccccccccccccss" /><ellipse
             style="fill:#4d4d4d;stroke:none;stroke-width:4.84556"
             id="ellipse40"
             cx="169.7498"
             cy="143.85797"
             rx="12.499983"
             ry="12.500046" /></g></g></g></g></svg>
